<svg width="1440" height="705" viewBox="0 0 1440 705" fill="none" xmlns="http://www.w3.org/2000/svg">
<path d="M923.103 175.767C882.434 175.767 838.072 196.746 791.245 238.104C769.064 257.585 749.656 278.564 735.484 295.347C735.484 295.347 758.281 320.222 783.235 346.896C796.791 330.712 816.199 308.834 838.688 289.054C880.277 252.19 907.387 244.698 923.103 244.698C981.634 244.698 1029.08 291.151 1029.08 348.695C1029.08 405.638 981.634 452.09 923.103 452.69C920.325 452.69 916.937 452.391 912.933 451.492C929.875 458.984 948.361 464.379 965.614 464.379C1072.82 464.379 1093.77 394.248 1095 389.153C1098.08 376.266 1099.93 362.78 1099.93 348.994C1099.62 253.389 1020.45 175.767 923.103 175.767Z" fill="url(#paint0_linear)"/>
<path d="M548.765 521.367C589.431 521.367 633.791 500.387 680.618 459.029C702.799 439.547 722.208 418.569 736.379 401.785C736.379 401.785 713.582 376.91 688.628 350.237C675.072 366.42 655.664 388.299 633.176 408.079C591.586 444.643 564.168 452.435 548.765 452.435C490.231 452.435 442.788 405.982 442.788 348.439C442.788 291.495 490.231 245.042 548.765 244.442C551.536 244.442 554.925 244.742 558.931 245.641C541.987 238.149 523.503 232.754 506.251 232.754C399.043 232.754 378.094 302.884 376.862 307.979C373.781 320.866 371.933 334.353 371.933 348.139C371.933 443.744 451.107 521.367 548.765 521.367Z" fill="url(#paint1_linear)"/>
<path fill-rule="evenodd" clip-rule="evenodd" d="M630.279 290.552C618.574 279.763 561.273 235.707 506.436 234.208C408.713 231.882 379.987 299.216 377.51 307.901C396.228 232.395 466.002 176.065 548.949 175.767C616.572 175.767 684.905 238.609 735.393 295.324C735.477 295.228 735.556 295.135 735.634 295.046C735.634 295.046 758.429 319.921 783.383 346.594C783.383 346.594 811.726 378.364 841.917 406.234C853.624 417.025 910.615 460.481 965.451 461.98C1065.89 464.678 1093.61 393.649 1095.15 388.252C1076.67 464.078 1006.74 520.721 923.553 521.02C855.912 521.02 787.553 458.136 736.851 401.407C736.751 401.522 736.655 401.635 736.564 401.742C736.564 401.742 713.767 376.866 688.813 350.193C688.813 350.193 660.47 318.424 630.279 290.552Z" fill="#29ABE2"/>
<path d="M741.838 383.262L735.925 370.302L730.011 383.262L689.537 471.958L713.392 386.851L718.898 367.205L703.042 380.045L629.633 439.491L684.109 387.234L676.857 376.654L630.994 398.089L657.553 384.165L652.657 372.185L634.702 377.603L631.771 366.502L616.875 369.434L615.244 359.736L604.722 360.986L603.888 352.151L598.521 352.437L598.338 346.423L598.521 340.409L603.888 340.696L604.722 331.859L615.244 333.108L616.874 323.413L631.771 326.345L634.702 315.242L652.657 320.659L657.553 308.679L631.03 294.774L676.857 316.192L684.109 305.613L629.633 253.355L703.042 312.801L705.051 314.428L707.628 314.231L718.673 313.386L734.617 313.386L751.411 320.43L754.501 321.726L757.35 319.96L768.134 313.274L768.482 313.059L768.799 312.801L842.243 253.33L787.741 305.613L794.993 316.192L840.751 294.806L814.289 308.679L819.184 320.659L837.147 315.239L840.078 326.345L854.968 323.414L856.598 333.108L867.119 331.859L867.953 340.696L873.321 340.409L873.504 346.423L873.321 352.437L867.953 352.151L867.119 360.986L856.598 359.736L854.967 369.432L840.078 366.502L837.147 377.605L819.184 372.185L814.289 384.165L840.788 398.057L794.993 376.654L787.741 387.234L842.243 439.517L768.799 380.045L752.944 367.206L758.45 386.851L782.299 471.937L741.838 383.262Z" stroke="#3652B8" stroke-width="13"/>
<path d="M509.123 461.553L509.122 461.554C435.899 499.802 357.716 519.571 281.605 523.392C205.494 527.212 130.736 515.135 64.8748 487.949C-0.232383 461.076 -33.3624 424.139 -34.869 385.981C-36.3758 347.819 -6.26883 308.091 55.9319 275.599C182.341 209.568 346.251 208.032 461.55 250.245C504.641 267.382 547.617 284.894 590.523 302.377C605.252 308.379 619.972 314.377 634.686 320.356C638.406 322.205 643.792 322.966 649.095 322.755C654.407 322.544 659.734 321.352 663.321 319.208L663.064 318.779L663.321 319.208C666.919 317.055 668.45 314.11 667.783 311.241C667.128 308.42 664.394 305.919 660.026 304.495C636.294 294.837 612.528 285.184 588.764 275.531C554.762 261.72 520.763 247.91 486.863 234.086L486.855 234.083L486.848 234.08C357.959 186.465 168.258 189.378 28.7507 262.251C-40.7331 298.547 -74.8302 343.828 -73.1317 387.714C-71.4331 431.603 -33.9478 473.761 38.9306 503.844C111.052 533.612 196.201 547.606 283.04 543.248C369.88 538.889 457.528 516.053 536.292 474.912L980.101 244.356L980.102 244.355C1053.32 206.108 1131.52 186.633 1207.63 182.813C1283.74 178.993 1358.49 190.775 1424.35 217.959C1489.46 244.834 1522.59 281.77 1524.09 319.929C1525.6 358.09 1495.49 397.818 1433.29 430.31C1306.73 496.419 1142.42 498.35 1027.1 455.986C985.962 438.479 941.955 420.772 898.407 403.249C883.684 397.324 869.014 391.421 854.524 385.554C850.804 383.705 845.419 382.944 840.116 383.151C834.804 383.359 829.476 384.543 825.89 386.673L825.888 386.674C822.29 388.827 820.759 391.772 821.426 394.641C822.081 397.462 824.815 399.962 829.184 401.386C853.021 410.984 876.735 420.735 900.447 430.487C934.3 444.408 968.15 458.328 1002.35 471.798L1002.36 471.802C1131.25 519.416 1320.96 516.799 1460.47 443.925C1529.96 407.629 1564.05 362.274 1562.35 318.315C1560.65 274.353 1523.16 232.121 1450.28 202.039L1450.27 202.036C1376.4 172.822 1284.34 159.622 1206.2 162.928L1205.7 162.95L1205.7 162.982C1119.02 167.401 1031.55 189.933 952.932 230.996C952.932 230.997 952.932 230.997 952.932 230.997L509.123 461.553Z" stroke="url(#paint2_linear)"/>
<path d="M436.04 482.442L436.034 482.444C343.338 528.545 243.851 554 146.628 561.369C49.3983 568.738 -46.432 558.104 -131.199 530.091C-173.056 516.258 -204.617 499.317 -226.012 480.606C-247.389 461.911 -258.484 441.582 -259.844 420.853C-261.206 400.12 -252.867 378.413 -234.21 356.889C-215.54 335.35 -186.658 314.151 -147.352 294.603C12.5927 215.056 222.105 206.725 370.432 249.709C426.065 267.365 481.556 285.448 536.969 303.505C555.972 309.698 574.966 315.887 593.954 322.056C599.215 324.157 606.489 324.784 613.418 324.323C620.393 323.858 627.58 322.252 632.549 319.443L632.55 319.442C637.487 316.647 640.603 312.298 639.208 307.43C637.938 302.997 633.315 299.947 627.468 298.442C596.828 288.471 566.149 278.508 535.471 268.545C491.556 254.284 447.645 240.025 403.858 225.743L403.815 225.729L403.771 225.716C236.888 176.864 -6.86365 187.819 -184.574 276.201L-183.239 278.887L-184.574 276.201C-228.881 298.237 -261.885 322.534 -283.442 347.691C-305.013 372.864 -315.229 399.039 -313.569 424.662C-310.249 475.928 -259.763 522.611 -165.504 553.761C-72.0109 584.657 37.799 597.091 149.302 588.64C260.813 580.189 372.942 550.739 473.243 500.858L1036.83 222.018L1036.84 222.015C1129.53 175.918 1229.04 150.793 1326.27 143.424C1423.5 136.055 1519.31 146.358 1604.07 174.369C1645.93 188.202 1677.49 205.143 1698.88 223.854C1720.26 242.549 1731.35 262.878 1732.71 283.607C1734.08 304.34 1725.74 326.047 1707.08 347.57C1688.41 369.109 1659.53 390.308 1620.22 409.856C1460.09 489.495 1250.08 498.29 1101.73 455.146C1048.57 436.985 991.718 418.71 935.481 400.634C916.495 394.531 897.579 388.451 878.898 382.405C873.637 380.304 866.364 379.677 859.437 380.134C852.462 380.595 845.278 382.192 840.309 384.982L840.301 384.987C835.364 387.782 832.248 392.131 833.643 396.999C834.913 401.433 839.539 404.483 845.389 405.988C876.118 415.873 906.721 425.945 937.33 436.02C981.083 450.42 1024.85 464.826 1069.02 478.696L1069.05 478.705L1069.08 478.713C1235.96 527.564 1479.73 516.945 1657.45 428.561C1701.76 406.524 1734.76 382.206 1756.31 357.018C1777.88 331.813 1788.09 305.596 1786.43 279.934C1783.11 228.587 1732.62 181.82 1638.36 150.668L1638.34 150.662L1638.32 150.656C1542.6 120.465 1423.97 109.213 1323.61 116.119L1320.62 116.325L1320.62 116.383C1210.1 125.123 1099.04 154.161 999.628 203.602L436.04 482.442Z" stroke="url(#paint3_linear)" stroke-width="6"/>
<path d="M776.904 384.419C774.256 381.084 769.024 381.058 766.349 384.338M776.904 384.419C782.234 389.944 787.63 395.506 793.045 401.088C809.059 417.594 825.239 434.271 840.35 450.674M776.904 384.419L779.254 382.553C779.221 382.512 779.188 382.471 779.154 382.43M776.904 384.419L779.064 382.336C779.094 382.368 779.124 382.399 779.154 382.43M766.349 384.338L826.103 267.777C854.118 237.77 883.699 223.962 912.252 223.438C940.805 222.915 968.604 235.656 992.836 261.227C1040.73 311.771 1040.43 392.391 992.836 443.368C944.406 495.244 882.859 490.982 840.35 450.674M766.349 384.338C763.675 387.647 764.163 393.541 767.332 396.23L766.349 384.338ZM840.35 450.674L842.556 448.642C842.533 448.617 842.51 448.592 842.487 448.567M840.35 450.674L842.414 448.498C842.438 448.521 842.463 448.544 842.487 448.567M842.487 448.567C863.243 468.217 888.496 478.958 914.33 478.59C940.163 478.223 966.909 466.743 990.643 441.321C1037.17 391.483 1037.45 312.665 990.659 263.29C966.882 238.201 939.853 225.933 912.307 226.438C884.757 226.943 855.902 240.255 828.295 269.824L828.289 269.831L658.667 450.454C658.665 450.455 658.664 450.457 658.663 450.458C628.187 483.098 594.349 499.917 560.808 500.532C527.269 501.147 494.901 485.688 467.973 457.273L470.151 455.209L467.973 457.273C413.339 399.618 413.818 305.583 467.958 247.591L470.151 249.638L467.958 247.591C495.098 218.521 526.908 204.933 558.125 204.517C589.312 204.102 619.639 216.835 643.852 239.909L643.901 239.956L643.949 240.005C656.41 253.009 668.906 266.001 681.404 278.995C690.11 288.047 698.817 297.099 707.515 306.159C709.763 308.137 710.892 311.047 711.119 313.804C711.352 316.618 710.687 319.735 708.763 322.115L708.762 322.117C704.91 326.877 697.491 326.874 693.623 322.159C688.236 316.557 682.849 310.939 677.461 305.321C661.703 288.889 645.933 272.445 630.11 256.31C609.346 236.701 584.116 225.901 558.316 226.2C532.533 226.498 505.843 237.882 482.141 263.27C435.612 313.109 435.337 391.927 482.125 441.301C505.914 466.404 532.946 478.911 560.477 478.406C588.014 477.9 616.871 464.349 644.488 434.767L644.494 434.761L814.117 254.137C843.711 222.439 876.467 205.91 909.031 204.407V204.288L912.03 204.287C942.215 204.274 977.152 219.243 1004.76 247.253L1004.79 247.274L1004.81 247.295C1059.44 304.95 1058.96 399.236 1004.82 457.228C977.679 486.301 945.866 499.825 914.647 500.176C883.461 500.527 853.137 487.73 828.927 464.659L828.895 464.628L828.864 464.597C816.278 451.878 803.789 438.744 791.321 425.633C782.635 416.5 773.96 407.377 765.27 398.413C763.018 396.435 761.888 393.522 761.66 390.764C761.427 387.95 762.092 384.833 764.016 382.452L764.024 382.443C767.877 377.717 775.287 377.719 779.154 382.43M842.487 448.567C827.368 432.157 811.174 415.465 795.177 398.977C789.798 393.432 784.441 387.91 779.154 382.43" stroke="url(#paint4_linear)" stroke-width="6"/>
<path d="M653.899 418.681L653.893 418.687C629.351 441.916 603.668 452.596 579.101 452.995C554.535 453.393 530.478 443.531 509.353 423.832L507.307 426.026L509.353 423.832C467.938 385.215 468.174 323.707 509.369 284.717C551.294 245.035 604.279 248.534 641.089 279.248C655.191 291.953 669.244 304.903 683.289 317.844C688.089 322.267 692.889 326.689 697.688 331.1C699.52 333.063 702.084 333.95 704.495 333.961C706.953 333.973 709.578 333.075 711.435 331.048L711.436 331.047C713.292 329.018 713.954 326.323 713.725 323.875C713.5 321.477 712.392 319.005 710.278 317.354C702.527 310.221 694.769 303.093 687.012 295.966C675.87 285.73 664.731 275.497 653.621 265.252L653.571 265.207L653.52 265.163C610.154 228.646 545.182 225.166 496.51 271.233L498.572 273.412L496.51 271.233C447.956 317.189 447.519 391.853 496.526 437.552L498.572 435.357L496.527 437.552C520.617 460.015 549.516 472.183 579.396 471.699C609.284 471.214 639.496 457.969 666.747 432.177L817.97 289.886L817.977 289.88C842.508 266.662 868.189 256.169 892.768 255.771C917.348 255.373 941.403 265.048 962.516 284.735C1003.93 323.353 1003.7 384.86 962.5 423.85C920.526 463.578 867.421 460.327 830.619 429.55C817.139 416.621 802.698 403.469 788.44 390.482C783.65 386.12 778.88 381.776 774.175 377.465C772.343 375.504 769.781 374.618 767.374 374.604C764.92 374.589 762.296 375.478 760.438 377.492L760.429 377.501C758.573 379.53 757.911 382.225 758.14 384.673C758.365 387.073 759.475 389.548 761.593 391.198C769.328 398.249 777.055 405.429 784.794 412.62C795.914 422.953 807.057 433.308 818.279 443.328L818.312 443.357L818.345 443.386C861.703 479.896 926.676 483.587 975.354 437.514C1023.91 391.558 1024.35 316.696 975.338 270.997L975.317 270.977L975.295 270.958C950.598 248.821 919.411 237.038 892.521 237.048L889.522 237.049V237.156C860.611 238.424 831.485 251.438 805.122 276.39L653.899 418.681Z" stroke="url(#paint5_linear)" stroke-width="6"/>
<defs>
<linearGradient id="paint0_linear" x1="830.355" y1="240.296" x2="1026.64" y2="449.025" gradientUnits="userSpaceOnUse">
<stop offset="0.21" stop-color="#F15A24"/>
<stop offset="0.6841" stop-color="#FBB03B"/>
</linearGradient>
<linearGradient id="paint1_linear" x1="641.31" y1="456.75" x2="445.023" y2="248.02" gradientUnits="userSpaceOnUse">
<stop offset="0.21" stop-color="#ED1E79"/>
<stop offset="0.8929" stop-color="#522785"/>
</linearGradient>
<linearGradient id="paint2_linear" x1="736.798" y1="167.622" x2="758.533" y2="683.585" gradientUnits="userSpaceOnUse">
<stop stop-color="#F515B7"/>
<stop offset="1" stop-color="#DEBD0F"/>
</linearGradient>
<linearGradient id="paint3_linear" x1="106.834" y1="153.254" x2="670.355" y2="1075.41" gradientUnits="userSpaceOnUse">
<stop stop-color="#15A5F5"/>
<stop offset="1" stop-color="#DE0F0F"/>
</linearGradient>
<linearGradient id="paint4_linear" x1="557.099" y1="170.122" x2="996.906" y2="497.07" gradientUnits="userSpaceOnUse">
<stop stop-color="#15A5F5"/>
<stop offset="1" stop-color="#DE0F0F"/>
</linearGradient>
<linearGradient id="paint5_linear" x1="735.932" y1="229.583" x2="735.932" y2="576.748" gradientUnits="userSpaceOnUse">
<stop stop-color="#F515B7"/>
<stop offset="1" stop-color="#DEBD0F"/>
</linearGradient>
</defs>
</svg>
